<svg xmlns="http://www.w3.org/2000/svg" width="175" height="175" viewBox="0 0 175 175">
  <g id="Group_43849" data-name="Group 43849" transform="translate(5135 18749)">
    <path id="squircle" d="M0,87.5C0,0,0,0,87.5,0S175,0,175,87.5,175,175,87.5,175,0,175,0,87.5" transform="translate(-5135 -18749)" fill="#fff"/>
    <path id="avatar-light" d="M113.26,132.021a80.794,80.794,0,0,1-105.147-3.8q.225-.153.451-.3c4.873-3.259,12.71-7.266,20.232-8.831.345.463.916,1.221.916,1.221,6.868,12.453,11.154,17.278,16.17,20.84a3.021,3.021,0,0,0,1.067-1.259,32.129,32.129,0,0,1,1.983-3.011c2.44-3.355,4.117-5.65,6.71-7.625a13.224,13.224,0,0,1,3.507-1.982c.2-.079,0-.819-.762-.61-.068.019-.136.032-.21.046-.435.083-1.106.211-3.45,1.784-2.745,1.842-8.069,9.361-8.845,10.523-6.708-4.864-12.658-14.235-14.95-20.3a56.662,56.662,0,0,1,3.544-9.884,5.077,5.077,0,0,1,3.958-2.855,1.6,1.6,0,0,0,.01-.512c-.138-1.733-2.835-15.86-3.032-16.875a13.219,13.219,0,0,0-.452-1.534,16.8,16.8,0,0,1-.681-2.454,10.459,10.459,0,0,1-7.019-.571,19.154,19.154,0,0,1-6.39-5.661c-2.737-3.938-3.2-7.876-2.727-12.336.207-1.93,1.516-5.641,5.011-6.842a3.2,3.2,0,0,1-.167-.325A30.864,30.864,0,0,1,21.1,54.05c-.234-.733-.51-1.6-.921-2.782-2.383-6.833-4.991-18.647,4.765-29C41.614,4.563,60.8,3.982,68.491,6.512l.024.008c.508.179,9.086,3.2,13.071,7.563C78.1,9.02,76.394,7.977,73.376,6.135l-.316-.193c3.209-1.1,12.868,1.762,19.867,9.776,3.249,3.731,12.4,17.081,7.63,30.746-1.63,4.68-3.12,5.857-4.052,6.594h0c-.115.091-.222.175-.319.258s-.1.289-.1.477c0,.07,0,.136-.006.192-.008.112-.016.632-.024,1.151,0,.117,0,.234-.005.346a14.288,14.288,0,0,1,2.983,1.073,3.454,3.454,0,0,1,1.641,3.516c0,.07-.005.136-.007.2a35.372,35.372,0,0,1-1.181,8.053c-.916,3.475-3.219,6.744-6.586,7.541-.072.452-.175,1-.247,1.393h0c-.036.194-.065.348-.078.427-.165.919-1.086,4.09-1.816,6.6h0c-.357,1.229-.668,2.3-.823,2.876-.178.662-.4,1.325-.64,2.021h0a21.256,21.256,0,0,0-1.427,8.809c.089,1.713-.384,11.44-13,12.533a4.849,4.849,0,0,1-.571,0s.089.316.216.945a19.637,19.637,0,0,1,2.781,1.763,36.633,36.633,0,0,1,7.473,8.54c.253.485.533.955.825,1.447,1.307,2.2,2.864,4.825,3.445,11.058-2.087-2.117-9.423-6.948-9.423-6.948a18.515,18.515,0,0,1,1.07-2.679,7.435,7.435,0,0,0,.466-1.122,4.4,4.4,0,0,0-1.263,1.14c-2.14,3.918-3.363,9.691-4.031,12.84h0c-.094.443-.177.834-.25,1.161a100.551,100.551,0,0,1-2.04-16.287c-.1-1.417-.2-2.824-.313-4.21-.06-.707-.138-2.75-.184-3.972v0c-.014-.375-.025-.673-.032-.83,0-.089-.006-.248-.009-.446-.012-.807-.034-2.262-.208-2.262a36.529,36.529,0,0,1-11.883-2.048A41.643,41.643,0,0,1,54,105.722c-7.414-3.879-12.494-9.343-13.291-15.339a2.915,2.915,0,0,1,.059-1.368.247.247,0,0,1,.128-.167.2.2,0,0,1,.108,0,.329.329,0,0,1,.217.236c1.053,4.45,2.412,6.409,7.1,10.6,5.208,4.647,16.057,8.181,27.291,8.063a10.81,10.81,0,0,0,8.664-4c1.664-1.989,2.432-6.537,2.333-7.325-.305-2.442.748-6.793,1.418-9.294.337-1.264.682-2.417,1.014-3.527h0a47.893,47.893,0,0,0,1.812-7.588,8.407,8.407,0,0,1-.955-.118c-4.962-.945-7.925-6.252-8.5-10.889a22.594,22.594,0,0,1-.118-4.627,3.852,3.852,0,0,0-.827-.217,32.056,32.056,0,0,0,.354,10.269c.4,1.7.569,2.832.756,4.093h0c.121.817.25,1.688.455,2.8.052.28.1.561.141.841h0a15.6,15.6,0,0,0,.331,1.688c.266.994-.049,1.831-1.368,1.792-.063-.147-.135-.3-.207-.444a4.87,4.87,0,0,1-.413-1.052,11.446,11.446,0,0,1-.295-2.006,14.646,14.646,0,0,0-.217-1.764c-.5-2.747-.758-5.484-1-8.27a35.772,35.772,0,0,1,.305-6.739c.073-.637.129-1.132.138-1.413l-.085-.013-.1-.016-.31-.029h-.005a14.6,14.6,0,0,0-2.983.384,25.784,25.784,0,0,1-.345,4.6c-.719,4.677-4.43,10.633-9.57,11.223a8.646,8.646,0,0,1-7.147-2.461c-1.959-2.038-2.481-4.854-2.845-7.551a40.121,40.121,0,0,1-.335-5.011c-1.145.184-2.958.4-4.739.617-2.033.245-4.026.485-4.939.663a5.111,5.111,0,0,1-.571.049s.532,6.586.857,8.969l.012.09c.182,1.339.531,3.91-.672,4.045a27.807,27.807,0,0,1-3.5.227,5.907,5.907,0,0,1-1.228-.206,5.975,5.975,0,0,0-1.243-.208c-1.486-.039-2.513-3.643-2.615-4l0-.013c-.072-.256-.147-.51-.223-.763h0c-.163-.546-.325-1.09-.446-1.648-.051-.246-.105-.52-.159-.793a11.706,11.706,0,0,0-.373-1.629,26.96,26.96,0,0,0-2.639-2.087,16.749,16.749,0,0,0-6.507-3.279c-1.211-.246-2.708-.384-3.741.561-2.235,2.038-2.629,6.7-2.343,9.52a13.215,13.215,0,0,0,5.119,9.067l.428.325h0a15.07,15.07,0,0,0,4.3,2.568,7.759,7.759,0,0,0,5.513-.246c.612-.245,1.207-.531,1.8-.818.219-.105.439-.211.659-.314-.02.052-.042.112-.065.176h0a3.009,3.009,0,0,1-.526,1.035,8.9,8.9,0,0,1-1.969,1.132,12.02,12.02,0,0,0,.56,1.986h0a27.307,27.307,0,0,1,.838,2.936c.1.822.83,3.865,1.614,7.118h0c.953,3.958,1.98,8.225,2.029,9.176a20.486,20.486,0,0,1-.138,4.785.483.483,0,0,0,.079.424A106.205,106.205,0,0,0,57,122.9a11.732,11.732,0,0,1,2.343,1.871c.1.136.2.256.284.368a7.958,7.958,0,0,1,.878,1.306c.076.143.193.364.342.647,1.239,2.349,4.754,9.016,6.6,11.581,3,4.174,5.828,5.218,6.97,4.883.929-.266,1.381-2.2,1.91-4.458.116-.495.235-1.005.364-1.518.817-3.249,2.056-7.221,2.587-8.639a61.455,61.455,0,0,1,8.618,5.964h0c.56.435,1.142.886,1.752,1.355,1.373-3.812-2.124-13.1-6.252-17.233C96.8,120.7,106.723,125.483,113.26,132.021ZM28.8,119.082a.071.071,0,0,0,.025-.005Zm.033-.008-.009,0,.025,0h-.009ZM73.02,65.928a12.347,12.347,0,0,1-2.707,6.232l-.071.077c-.119.13-.357.39-.49.523a5.448,5.448,0,0,1-3.515.965,7.8,7.8,0,0,1-6.911-6.035,33.268,33.268,0,0,1-.886-5.582l-.029-.267h0a23.609,23.609,0,0,1-.158-2.726c-.03-1.7,2.284-2.313,3.377-2.442a38.176,38.176,0,0,1,5.031-.157l.078,0c1.58.069,4.055.177,5.169.951,1.046.726,1.181,2.408,1.277,3.6l.008.092c0,.022,0,.044.005.065A21.4,21.4,0,0,1,73.02,65.928ZM97.967,58.15c.473.522.207,2.658-.02,3.918l-.046.27A41.333,41.333,0,0,1,96.58,68.31c-.955,2.914-2.5,5.6-6.468,6.035a2.823,2.823,0,0,1-1.8-.354,7.925,7.925,0,0,1-2.274-2.747,12.884,12.884,0,0,1-1.8-5.238,23.662,23.662,0,0,1-.02-5.474c.148-1.28.413-3.042,1.743-3.593,1.988-.827,5.346-.689,7.659-.394C96.225,56.88,97.623,57.766,97.967,58.15Zm-1.831-5.8v.01h.007S96.142,52.356,96.137,52.351ZM44.824,42.959a6.224,6.224,0,0,1,.02,3.81,24.359,24.359,0,0,1-1.014,2.309c-.13.265-.223.456-.256.555,5.686-.582,9.456-4.216,13.111-7.74q.45-.434.9-.864c.935,4.105-1.546,7.423-4.125,9.786A22.236,22.236,0,0,0,64.652,44.81c2.058-1.92,3.013-2.865,6.222-8.241.138,3.613.128,4.844-.394,6.222a28.712,28.712,0,0,1-4.253,6.715c.354-.036.7-.068,1.041-.1h0A22.157,22.157,0,0,0,79.5,45.145c3.446-2.284,8.014-7.748,9.3-9.432,7.914.393,9.614,6.627,9.824,7.4v0a13.685,13.685,0,0,0-5.09-3.21,40.535,40.535,0,0,1,.945,11.155c-.013.413-.038,1-.064,1.629h0c-.034.8-.071,1.686-.093,2.417a32.832,32.832,0,0,0-7.738-.354c-2.294.157-4.283.679-4.883,3.121a1.444,1.444,0,0,0-.039.2c-.305-.059-.62-.1-.935-.138h0c.079-.62.167-1.26.276-1.93l-.738,1.89c-.157-.01-.315-.02-.472-.02a17.349,17.349,0,0,0-4.027.453,9.407,9.407,0,0,0-.423-1.585c-.826-2.232-3.416-2.4-5.528-2.534l-.527-.035a50.139,50.139,0,0,0-8.29.463,6.294,6.294,0,0,0-5.021,3.889,5.192,5.192,0,0,0-.187,1.073c-1.53.062-4.407.2-6.764.306-1.359.063-2.544.118-3.2.147-.1,0-.473.02-.473.02s-.029-.276-.029-.552c-.02-.709-.473-5.877-.7-8.26a13.944,13.944,0,0,1-5.031.236C41.929,48.62,44.075,45.962,44.824,42.959ZM91.352,61.547c0,.122,0,.242.007.36a3.045,3.045,0,0,1-.007.536.475.475,0,0,1-.476-.291c-.048-.078-.083-.135-.135-.113-.768.325-1.349.758-1.349,1.112,0,.709,1.723.994,1.792.985-.029.345-.118,1.063-.187,1.408a7.718,7.718,0,0,1-.335,1.152,1.637,1.637,0,0,1-1.575,1.083,1.462,1.462,0,0,1-1.171-1.132,16.391,16.391,0,0,1-.807-3.82c-.017-2,.345-2.026,1.223-2.082.132-.009.275-.018.431-.034C90.554,60.513,91.371,60.522,91.352,61.547ZM85.573,91v.246a1.75,1.75,0,0,0-.446.151,1.666,1.666,0,0,1-.47.154,8.762,8.762,0,0,0-1.3.424,6.8,6.8,0,0,1-.941.314,1.215,1.215,0,0,0-.74.432,1.077,1.077,0,0,1-.776.415,12.29,12.29,0,0,0-1.519.1h0a13.544,13.544,0,0,1-1.385.1c-.562,0-1.125.017-1.686.034s-1.116.034-1.671.034a13.756,13.756,0,0,1-3.14-.393h0a19.668,19.668,0,0,0-2.472-.4c-.486-.043-1.776-.282-2.989-.507h0c-1-.185-1.942-.36-2.346-.408a8.392,8.392,0,0,1-.207,1.378c-.079.335-.286.561-.473.325a.248.248,0,0,0-.311-.072c-.219.059-.408.11-.388-1.375,0-.075,0-.15,0-.225,0-.3,0-.6.021-.9A7.244,7.244,0,0,1,62.6,89.27c.266-.443.994-.167.935,1.073,0,0,1.388.128,1.674.167,7.689,1.014,10.83,1.26,13.35,1.162,1.693-.07,3.4-.289,4.722-.46h0A14.626,14.626,0,0,1,85.573,91Zm-2.461,4.489a.48.48,0,0,0-.02-.512.618.618,0,0,0-.542-.049c-.31.112-.615.24-.92.367h0a12.429,12.429,0,0,1-1.521.559,14.253,14.253,0,0,1-4.6.225h0c-.284-.017-.568-.034-.853-.047-.483-.024-.806-.032-1.063-.038a10.637,10.637,0,0,1-1.929-.2,15.363,15.363,0,0,1-2.013-.516h0c-.283-.086-.566-.173-.851-.252-.156-.044-.313-.089-.47-.135h0c-.336-.1-.674-.2-1.016-.278,0,0-.305.02-.413.168s.433.7.571.758c.436.2.841.374,1.23.537a11.941,11.941,0,0,1,2.619,1.373c.115.084.234.178.357.276h0a4.676,4.676,0,0,0,1.513.906,10.28,10.28,0,0,0,1.2.305c1.024.177,3.692.443,5-.276a20.883,20.883,0,0,0,2.451-2.054h0C82.387,96.11,82.867,95.673,83.111,95.493ZM76.3,82.507a.927.927,0,0,1,.5.155c.093.047.193.1.3.14-.2.077-.38.157-.551.233h0a3.825,3.825,0,0,1-.985.339,3.186,3.186,0,0,0-2.294,1.26,2.354,2.354,0,0,1-1.142.807,2.17,2.17,0,0,1-1.368-.216,1.3,1.3,0,0,1-.039-1.772c.941-.834,2.6-.858,4.053-.878C75.324,82.566,75.851,82.558,76.3,82.507ZM68.28,62.375a2.646,2.646,0,0,0,.054-1c-.2-.621-1.235-.646-2.287-.671h0c-.265-.006-.531-.013-.785-.028-1.713-.108-1.841.778-1.624,2.126a32.157,32.157,0,0,0,.886,4.224,1.608,1.608,0,0,0,1.3,1.25,1.827,1.827,0,0,0,1.743-1.2A8.373,8.373,0,0,0,67.94,65.7a6.173,6.173,0,0,0,.089-1.477,1.361,1.361,0,0,1-1.91-1c-.013-.207.334-.382.772-.6a8.017,8.017,0,0,0,.793-.441c.085-.057.2.1.318.246.084.109.166.216.233.237C68.245,62.58,68.261,62.482,68.28,62.375Zm-33.39,8.15a.451.451,0,0,1-.079.345.356.356,0,0,1-.286-.049c-3.741-4.076-7.069-3.475-7.837-3.279,0,0,.758,5.69,3.928,7.345a1.112,1.112,0,0,1,.409.514,3.877,3.877,0,0,0,.231.391h-.349c-.288,0-.512,0-.734-.011a3.829,3.829,0,0,1-.66-.108c-.127-.037-.264-.066-.4-.094h0a1.716,1.716,0,0,1-.869-.339c-.121-.121-.244-.241-.366-.361A8.261,8.261,0,0,1,25.9,72.357a19.854,19.854,0,0,1-1.029-3.838c-.035-.186-.056-.3-.064-.317-1,.384-1.142,1.044-1.191,2.9.03.345-1.555.177-1.457-.492A4.538,4.538,0,0,1,25.7,65.367a6.7,6.7,0,0,1,3.15-.207,6.625,6.625,0,0,1,3.229,1.723,28.981,28.981,0,0,1,2.087,2.3,3.888,3.888,0,0,1,.591,1.052h0C34.8,70.334,34.846,70.43,34.89,70.525Z" transform="translate(-5108.186 -18739.025)" fill="#2f3a41" fill-rule="evenodd"/>
  </g>
</svg>
